<?xml version="1.0" encoding="UTF-8"?>
<svg width="16px" height="16px" viewBox="0 0 16 16" version="1.1" xmlns="http://www.w3.org/2000/svg" xmlns:xlink="http://www.w3.org/1999/xlink">
    <title>download@1x</title>
    <g id="登录页" stroke="none" stroke-width="1" fill="none" fill-rule="evenodd">
        <g id="02集成页02" transform="translate(-628.000000, -1032.000000)">
            <g id="btn" transform="translate(504.000000, 1020.000000)">
                <g id="download" transform="translate(124.000000, 12.000000)">
                    <rect id="1" fill="#FFFFFF" opacity="0" x="0" y="0" width="16" height="16"></rect>
                    <path d="M4.53056158,10.6841682 L5.53733009,9.71564283 L7.26982475,11.6384607 L7.26982475,6.21329256 L8.71061219,6.21329256 L8.71061219,11.6384607 L10.4422207,9.7147567 L11.449878,10.683282 L7.99021847,14.5227018 L4.53056158,10.6841682 Z M11.2008511,12.7448449 L11.2008511,11.4232424 L12.8017159,11.4232424 L12.8017158,11.4232424 C13.8968149,11.4000482 14.7657649,10.4934919 14.742569,9.3983889 C14.7200665,8.33594386 13.8641582,7.48004083 12.8017158,7.45753565 L11.5210214,7.45753565 L11.5210214,6.13593313 L11.5210214,6.13593088 C11.590143,4.191077 10.0695613,2.5584287 8.12470743,2.48931031 C6.17985355,2.42018879 4.54720524,3.94077043 4.47808685,5.88562432 C4.47512232,5.96903643 4.47512237,6.05252751 4.47808701,6.13594001 L4.47808701,7.45754252 L3.19739258,7.45754252 L3.19739248,7.45754253 C2.10229343,7.4807368 1.23334339,8.38729303 1.25653923,9.48239599 C1.2790418,10.544841 2.13495004,11.4007441 3.19739248,11.4232492 L4.79825727,11.4232492 L4.79825727,12.7439656 L3.19739248,12.7439656 L3.19739261,12.7439656 C1.37263584,12.6840813 -0.0580783489,11.1562756 0.00181383059,9.33151879 C0.0589384076,7.59085345 1.4567403,6.19305651 3.19739261,6.13594001 L3.19739261,6.13594074 C3.19739221,3.48353555 5.34759483,1.33333333 8,1.33333333 C10.6524052,1.33333333 12.8026074,3.48353555 12.8026074,6.13594074 C12.8026074,6.13594074 12.8026074,6.13594074 12.8026074,6.13594074 L12.8026074,6.13594074 C14.6273642,6.19582523 16.0580783,7.72363081 15.9981862,9.54838758 C15.9410616,11.2890529 14.5432597,12.6868499 12.8026074,12.7439664 L11.2008511,12.7448449 Z" id="形状" fill="#666666" fill-rule="nonzero"></path>
                </g>
            </g>
        </g>
    </g>
</svg>