<?xml version="1.0" standalone="no"?><!DOCTYPE svg PUBLIC "-//W3C//DTD SVG 1.1//EN" "http://www.w3.org/Graphics/SVG/1.1/DTD/svg11.dtd"><svg t="1649317879841" class="icon" viewBox="0 0 1024 1024" version="1.1" xmlns="http://www.w3.org/2000/svg" p-id="1682" width="64" height="64" xmlns:xlink="http://www.w3.org/1999/xlink"><defs><style type="text/css">@font-face { font-family: feedback-iconfont; src: url("//at.alicdn.com/t/font_1031158_u69w8yhxdu.woff2?t=1630033759944") format("woff2"), url("//at.alicdn.com/t/font_1031158_u69w8yhxdu.woff?t=1630033759944") format("woff"), url("//at.alicdn.com/t/font_1031158_u69w8yhxdu.ttf?t=1630033759944") format("truetype"); }
</style></defs><path d="M793.5 87.4c-4.3 0-8.6 0.4-12.9 1.9l-256.1 85.4c-4.3 1.6-8.2 1.9-12.5 1.9-4.3 0-8.2-0.4-12.5-1.9L243.4 89.3c-4.3-1.6-8.6-1.9-12.5-1.9-26.5 0-47.2 27.7-35.9 54.2l245.2 573.8 31.2 72.9 5.1 11.7c6.6 16 21 23.8 35.9 23.8 14.4 0 28.8-7.8 35.9-23.8l5.1-11.7 31.2-72.9L829 141.6c11.2-26.9-9.4-54.2-35.5-54.2z" fill="#feaf45" p-id="1683" data-spm-anchor-id="a313x.7781069.0.i0" class=""></path></svg>