<?xml version="1.0" standalone="no"?><!DOCTYPE svg PUBLIC "-//W3C//DTD SVG 1.1//EN" "http://www.w3.org/Graphics/SVG/1.1/DTD/svg11.dtd"><svg t="1651026969275" class="icon" viewBox="0 0 1024 1024" version="1.1" xmlns="http://www.w3.org/2000/svg" p-id="15319" width="32" height="32" xmlns:xlink="http://www.w3.org/1999/xlink"><defs><style type="text/css">@font-face { font-family: feedback-iconfont; src: url("//at.alicdn.com/t/font_1031158_u69w8yhxdu.woff2?t=1630033759944") format("woff2"), url("//at.alicdn.com/t/font_1031158_u69w8yhxdu.woff?t=1630033759944") format("woff"), url("//at.alicdn.com/t/font_1031158_u69w8yhxdu.ttf?t=1630033759944") format("truetype"); }
</style></defs><path d="M989.867 102.4V88.747s0-6.827-6.827-6.827l-6.827-6.827H826.027c-27.307-6.826-40.96 6.827-40.96 27.307 0 20.48 13.653 34.133 34.133 34.133h54.613l-204.8 204.8-150.186-143.36c-13.654-13.653-34.134-13.653-47.787 0L109.227 559.787c-13.654 13.653-13.654 34.133 0 47.786 13.653 13.654 34.133 13.654 47.786 0l341.334-334.506 143.36 143.36c13.653 13.653 34.133 13.653 47.786 0L921.6 184.32v54.613c0 20.48 13.653 34.134 34.133 34.134s34.134-13.654 34.134-34.134V102.4zM921.6 921.6c0 20.48-13.653 34.133-34.133 34.133H819.2c-20.48 0-34.133-13.653-34.133-34.133V518.827c0-20.48 13.653-34.134 34.133-34.134h68.267c20.48 0 34.133 13.654 34.133 34.134V921.6z m-34.133-505.173H819.2c-54.613 0-102.4 47.786-102.4 102.4V921.6c0 54.613 47.787 102.4 102.4 102.4h68.267c54.613 0 102.4-47.787 102.4-102.4V518.827c0-54.614-47.787-102.4-102.4-102.4zM580.267 921.6c0 20.48-13.654 34.133-34.134 34.133h-68.266c-20.48 0-34.134-13.653-34.134-34.133V655.36c0-20.48 13.654-34.133 34.134-34.133h68.266c20.48 0 34.134 13.653 34.134 34.133V921.6z m-34.134-368.64h-68.266c-54.614 0-102.4 47.787-102.4 102.4V921.6c0 54.613 47.786 102.4 102.4 102.4h68.266c54.614 0 102.4-47.787 102.4-102.4V655.36c0-54.613-47.786-102.4-102.4-102.4z m-307.2 368.64c0 20.48-13.653 34.133-34.133 34.133h-68.267c-20.48 0-34.133-13.653-34.133-34.133V791.893c0-20.48 13.653-34.133 34.133-34.133H204.8c20.48 0 34.133 13.653 34.133 34.133V921.6zM204.8 689.493h-68.267c-54.613 0-102.4 47.787-102.4 102.4V921.6c0 54.613 47.787 102.4 102.4 102.4H204.8c54.613 0 102.4-47.787 102.4-102.4V791.893c0-54.613-47.787-102.4-102.4-102.4z" p-id="15320" fill="#cccccc"></path></svg>