<?xml version="1.0" standalone="no"?><!DOCTYPE svg PUBLIC "-//W3C//DTD SVG 1.1//EN" "http://www.w3.org/Graphics/SVG/1.1/DTD/svg11.dtd"><svg t="1651028810558" class="icon" viewBox="0 0 1024 1024" version="1.1" xmlns="http://www.w3.org/2000/svg" p-id="47847" width="32" height="32" xmlns:xlink="http://www.w3.org/1999/xlink"><defs><style type="text/css">@font-face { font-family: feedback-iconfont; src: url("//at.alicdn.com/t/font_1031158_u69w8yhxdu.woff2?t=1630033759944") format("woff2"), url("//at.alicdn.com/t/font_1031158_u69w8yhxdu.woff?t=1630033759944") format("woff"), url("//at.alicdn.com/t/font_1031158_u69w8yhxdu.ttf?t=1630033759944") format("truetype"); }
</style></defs><path d="M512 64c247.136 0 448 200.864 448 448s-200.864 448-448 448S64 759.136 64 512 264.864 64 512 64z m0 832c211.968 0 384-172.032 384-384S723.968 128 512 128 128 300.032 128 512s172.032 384 384 384z m96-480a64 64 0 1 1 128 0 64 64 0 0 1-128 0zM288 416a64 64 0 1 1 128 0 64 64 0 0 1-128 0z m407.68 170.848c17.184 11.2 22.4 34.336 11.2 51.52A229.44 229.44 0 0 1 512 745.152a229.44 229.44 0 0 1-194.88-106.784 37.408 37.408 0 0 1 11.2-51.52 37.408 37.408 0 0 1 51.52 11.2A155.904 155.904 0 0 0 512 670.464c53.76 0 103.04-26.88 132.16-72.416 11.2-17.184 34.336-22.4 51.52-11.2z" fill="#cccccc" p-id="47848"></path></svg>