<?xml version="1.0" standalone="no"?><!DOCTYPE svg PUBLIC "-//W3C//DTD SVG 1.1//EN" "http://www.w3.org/Graphics/SVG/1.1/DTD/svg11.dtd"><svg t="1651028531565" class="icon" viewBox="0 0 1024 1024" version="1.1" xmlns="http://www.w3.org/2000/svg" p-id="40960" width="32" height="32" xmlns:xlink="http://www.w3.org/1999/xlink"><defs><style type="text/css">@font-face { font-family: feedback-iconfont; src: url("//at.alicdn.com/t/font_1031158_u69w8yhxdu.woff2?t=1630033759944") format("woff2"), url("//at.alicdn.com/t/font_1031158_u69w8yhxdu.woff?t=1630033759944") format("woff"), url("//at.alicdn.com/t/font_1031158_u69w8yhxdu.ttf?t=1630033759944") format("truetype"); }
</style></defs><path d="M122.257973 705.670931c6.478552-1.74883 129.905652-42.611493 129.905652-42.611493s-11.851932-37.409005-13.33061-44.49233c-1.812275-8.287757-4.875031-8.495488-7.248078-8.830109l-0.644683 0-127.199007-1.122567C103.742271 608.615455 117.989763 681.179121 122.257973 705.670931z" p-id="40961" fill="#cccccc"></path><path d="M423.536714 662.1006c0 0-289.63454 120.054283-296.840662 122.386398-2.874467 18.575054-16.579607 76.812433-16.579607 76.812433l123.218346 0c0 0 10.478655 0.167822 12.518105-8.120958 8.206916-33.825386 13.81054-64.484663 14.184047-65.649186 0.874927-3.042289 2.687202-7.581676 8.061606-10.29139 2.832512-1.49812 212.798571-107.890242 212.798571-107.890242s0-21.118993 0-36.112476l-57.360406 0L423.536714 662.1006z" p-id="40962" fill="#cccccc"></path><path d="M186.84599 385.045563c0-12.95301-0.061398-21.783119-0.165776-27.656897-20.329001-10.080589-84.915995-43.395346-99.03762-50.352805-0.082888 13.028735-0.146333 27.525913-0.146333 27.525913l0 0.124843c-0.082888 0.333598-0.082888 0.74906-0.082888 1.164522 0 4.500501 0.99977 13.831007 6.14393 16.787338 7.019881 4.041036 78.45791 41.992393 93.476975 50.154283-0.188288-2.541893-0.188288-5.164626-0.188288-7.873318 0-0.165776 0-0.289596 0-0.415462C186.84599 391.045207 186.84599 388.04692 186.84599 385.045563z" p-id="40963" fill="#cccccc"></path><path d="M957.003632 383.172913c-0.231267-1.083681-1.706875-2.289136-4.080945-3.582595-10.353812-0.415462-57.113789-2.665713-107.497293-5.123694-2.059915 39.116903-5.746888 105.72288-6.642281 110.262266-0.540306 2.666736-6.538927 14.455223-14.745842 29.410843 2.124384 1.459235 4.02057 2.622734 5.376451 3.455705 4.828982 2.752694 14.034645 4.125971 18.160615-0.539282 2.6432-3.167133 17.786085-21.038152 35.300994-41.906435 24.933879-29.701462 53.15564-63.276139 59.882855-70.89977l5.039783-5.581112c6.934946-7.665587 9.457396-10.787694 9.457396-13.953803C957.254342 384.214638 957.189873 383.715265 957.003632 383.172913z" p-id="40964" fill="#cccccc"></path><path d="M397.688 552.21184c-12.580526 19.703761-29.429263 30.658254-47.653323 30.658254-8.580422 0-16.872273-2.538823-24.433482-7.209192 0 12.623505 0 23.704888 0 27.746948 11.268648 0 143.9229 0 155.294902 0 0-3.001357 0-10.082636 0-18.912745-23.284309-11.82942-50.569746-25.701358-78.812997-40.11565C400.645354 547.088146 399.272078 549.711903 397.688 552.21184z" p-id="40965" fill="#cccccc"></path><path d="M386.85835 545.42118c1.352811-2.167363 2.687202-4.455475 3.872191-6.831592-32.239262-16.412808-65.045435-33.115212-93.641727-47.610344 2.707668 44.403303 25.430182 79.104639 52.945863 79.104639C363.759259 570.083883 376.755248 561.41648 386.85835 545.42118z" p-id="40966" fill="#cccccc"></path><path d="M513.991866 518.804986l-2.439562-1.333368c-5.119601-2.167363-192.281281-94.516654-312.043922-153.710824 0.042979 5.332449 0.042979 12.247952 0.042979 21.078061 0 3.042289 0 6.206352 0 9.665127 0 0.125867 0 0.249687 0 0.415462 0 34.325783 11.269671 38.947034 17.349133 41.407062 8.04114 3.331885 263.74387 133.757376 302.464753 153.503093-0.063445-0.918929-0.063445-2.044566-0.063445-3.1262l1.729387-64.651462C518.261099 521.137101 515.823584 519.80271 513.991866 518.804986z" p-id="40967" fill="#cccccc"></path><path d="M549.877167 488.646106c14.059204-18.163685 79.104639-93.39204 82.523505-97.477079 2.037403-2.622734 30.845519-38.446637 80.269162-35.948747 34.780131 1.7519 150.733003 7.416923 209.009268 10.123568-7.956206-3.540639-14.685467-6.496971-14.685467-6.496971l-85.789898-38.0762-26.492374-11.651364-51.343365-22.724561c-29.968545-13.390985-60.98291-27.158547-91.580788-40.448224l-55.776328-24.762987c-26.720571-11.997242-54.256718-24.328082-81.603553-35.846416-12.310374-5.081739-56.005548-25.095561-67.834968-30.490431-24.600281-11.059893-50.009997-22.537296-76.397994-30.804586-6.813173-2.12643-37.950334-8.144494-45.593408-8.581446l-74.231655-3.665483c-43.217291-2.103918-92.185562-4.561899-103.015212-5.208629-33.323966-2.060939-49.215912 0.023536-54.798047 18.226107-3.103688 10.1645-19.016099 92.163049-24.682146 114.054639-1.435699 5.331425-2.082428 9.706059-2.082428 13.267165 0 12.392238 7.373944 15.829524 16.1007 19.891026l3.874237 1.854231c3.331885 1.687432 432.513668 212.601072 441.178001 216.6022-0.082888 0-0.122797-0.084934-0.122797-0.084934l0.122797 0.084934 0 0 3.478218 1.74883C536.08914 495.39481 540.653085 497.851769 549.877167 488.646106z" p-id="40968" fill="#cccccc"></path><path d="M711.981149 367.967606c-43.300178-2.248204-69.419046 30.78412-69.669756 31.117718l-0.145309 0.165776c-0.788969 0.916882-79.561034 95.891977-92.850711 112.931049l-0.185218 0.333598-0.273223 0.249687c-5.498224 5.580089-10.558473 8.497535-15.141862 9.745968-0.564865 24.158213-1.666966 64.48364-1.666966 64.48364 0 0.332575-0.060375 0.665149-0.060375 0.873903 0 8.830109 3.540639 13.833053 20.283975 15.08251 10.038634 0.788969 169.249729 5.372358 181.286879 5.205559 10.038634-0.167822 17.84953-0.958838 26.596751-11.206226 10.41521-12.20395 63.005986-106.637716 66.193585-114.968451 0.771573-5.499248 3.851725-60.903092 6.351662-108.180861C783.256472 371.424334 732.956879 369.093243 711.981149 367.967606zM758.740102 447.656553c-4.121877 12.536524-21.929452 74.229608-21.929452 74.229608s-2.27174 10.829649-7.81192 14.328333c-5.434779 3.793396-15.994276 2.793626-15.994276 2.793626-10.334369-0.418532-20.767999-0.876973-31.078833-1.292436-17.057491-0.543376-58.44204-2.248204-62.064544-2.334161-3.794419 0-11.686157-1.791809-13.32754-5.953595-2.188852-5.373381-0.064468-12.041244 1.413186-17.371646 2.022053-7.16519 4.27128-14.290471 6.288217-21.453614 4.29277-15.037485 8.604982-29.950126 13.248745-44.905746 2.206248-7.4159 2.791579-14.870686 9.333576-20.329001 6.846942-5.872754 15.431457-5.079692 23.73968-4.954849 8.019651 0.164752 16.099676 0.249687 24.099884 0.499373 16.911158 0.583285 33.867342 1.3743 50.821479 2.124384 5.100158 0.292666 10.163477 0.499373 15.287171 0.792039C764.427638 424.535973 762.845607 435.033048 758.740102 447.656553z" p-id="40969" fill="#cccccc"></path><path d="M325.601194 633.235179c0 12.94994 0 19.948331 0 19.948331l-220.462111 75.81778-1.166569-6.791683c-7.248078-40.697911-18.22406-105.054661-20.037359-113.681132L63.836399 608.528474c0 31.033807 0 225.028103 0 252.769934l24.119327 0c2.686179-16.786315 16.807804-78.355579 16.953114-79.310324l0.626263-3.790326c0 0 296.777217-122.428354 305.338197-125.217886 0-5.541203 0-8.207939 0-19.744693L325.601194 633.235179z" p-id="40970" fill="#cccccc"></path></svg>