<?xml version="1.0" standalone="no"?><!DOCTYPE svg PUBLIC "-//W3C//DTD SVG 1.1//EN" "http://www.w3.org/Graphics/SVG/1.1/DTD/svg11.dtd"><svg t="1648630503917" class="icon" viewBox="0 0 1024 1024" version="1.1" xmlns="http://www.w3.org/2000/svg" p-id="3010" width="64" height="64" xmlns:xlink="http://www.w3.org/1999/xlink"><defs><style type="text/css">@font-face { font-family: feedback-iconfont; src: url("//at.alicdn.com/t/font_1031158_u69w8yhxdu.woff2?t=1630033759944") format("woff2"), url("//at.alicdn.com/t/font_1031158_u69w8yhxdu.woff?t=1630033759944") format("woff"), url("//at.alicdn.com/t/font_1031158_u69w8yhxdu.ttf?t=1630033759944") format("truetype"); }
</style></defs><path d="M486.0928 947.3024l-380.3648-197.8368c-39.3728-20.48-39.3728-76.8 0-97.2288l380.3648-197.8368c15.7696-8.192 34.56-8.2432 50.3296-0.1024l384.9216 197.8368c39.68 20.3776 39.68 77.1072 0 97.4848l-384.9216 197.8368a54.912 54.912 0 0 1-50.3296-0.1536z" fill="#39f3ee" p-id="3011" data-spm-anchor-id="a313x.7781069.0.i40" class=""></path>
<path d="M486.0928 571.136L105.728 373.248c-39.3728-20.48-39.3728-76.8 0-97.2288l380.3648-197.8368c15.7696-8.192 34.56-8.2432 50.3296-0.1024l384.9216 197.8368c39.68 20.3776 39.68 77.1072 0 97.4848l-384.9216 197.8368a54.7584 54.7584 0 0 1-50.3296-0.1024z" fill="#39f3ee" p-id="3012" data-spm-anchor-id="a313x.7781069.0.i39" class=""></path>
<path d="M486.0928 454.3488l-297.0112 154.5216 297.0112 154.5216c15.7696 8.192 34.56 8.2432 50.3296 0.1024l300.8512-154.624-300.8512-154.624a54.60992 54.60992 0 0 0-50.3296 0.1024z" fill="#794ef3" p-id="3014" data-spm-anchor-id="a313x.7781069.0.i45" class="selected"></path>
<path d="M486.0928 270.3872L197.0176 420.7616l289.0752 150.3744c15.7696 8.192 34.56 8.2432 50.3296 0.1024l292.7616-150.4768-292.7616-150.4768a54.7584 54.7584 0 0 0-50.3296 0.1024z" fill="#794ef3" p-id="3015" data-spm-anchor-id="a313x.7781069.0.i44" class="selected"></path>
<path d="M486.0928 454.3488l-112.2816 58.4192 112.2816 58.4192c15.7696 8.192 34.56 8.2432 50.3296 0.1024l113.8688-58.5216-113.8688-58.5216a54.60992 54.60992 0 0 0-50.3296 0.1024z" fill="#f3c06e" p-id="3016" data-spm-anchor-id="a313x.7781069.0.i48" class=""></path></svg>